# xmcd
#
# Track frame offsets:
#	150
#	17020
#	40445
#	57417
#	75935
#	90355
#	111630
#	150205
#	163105
#	175355
#	183610
#	198220
#	217700
#	241757
#	255470
#	273642
#	298832
# Disc length: 4151 seconds
# Revision: 1
# Processed by: cddbd v1.5.1PL0 Copyright (c) Steve Scherf et al.
#
# Submitted via: libkcddb 0.21
#
DISCID=e2103511
DTITLE=Chris Barber - The Great Reunion Concert
DYEAR=1900
DGENRE=Jazz
TTITLE0=Bourbon Street Parade
TTITLE1=Saturday Night Function
TTITLE2=The Martinique
TTITLE3=The Isle of Capri
TTITLE4=Hushabye
TTITLE5=It's Tight Like That
TTITLE6=Fairfield Re-Union Blues
TTITLE7=Bobby Shaftoe
TTITLE8=On a Monday
TTITLE9=Bury My Body
TTITLE10=Long Gone Lost John
TTITLE11=Jenny's Ball
TTITLE12=Chimes Blues
TTITLE13=Whistlin' Rufus
TTITLE14=Jazz Me Blues
TTITLE15=Just a Sittin' and a Rockin'
TTITLE16=Stevedore Stomp
EXTD=
EXTT0=
EXTT1=
EXTT2=
EXTT3=
EXTT4=
EXTT5=
EXTT6=
EXTT7=
EXTT8=
EXTT9=
EXTT10=
EXTT11=
EXTT12=
EXTT13=
EXTT14=
EXTT15=
EXTT16=
PLAYORDER=
